<?xml version="1.0" encoding="UTF-8" standalone="no"?>
<!-- Created with Inkscape (http://www.inkscape.org/) -->

<svg
   xmlns:dc="http://purl.org/dc/elements/1.1/"
   xmlns:cc="http://creativecommons.org/ns#"
   xmlns:rdf="http://www.w3.org/1999/02/22-rdf-syntax-ns#"
   xmlns:svg="http://www.w3.org/2000/svg"
   xmlns="http://www.w3.org/2000/svg"
   xmlns:sodipodi="http://sodipodi.sourceforge.net/DTD/sodipodi-0.dtd"
   xmlns:inkscape="http://www.inkscape.org/namespaces/inkscape"
   width="795.31879"
   height="194.97772"
   viewBox="0 0 210.42809 51.587857"
   version="1.1"
   id="svg8"
   inkscape:version="0.92.0 r15299"
   sodipodi:docname="infinihub_wide.svg">
  <title
     id="title5106">Infinihub Logo</title>
  <defs
     id="defs2" />
  <sodipodi:namedview
     id="base"
     pagecolor="#ffffff"
     bordercolor="#666666"
     borderopacity="1.0"
     inkscape:pageopacity="0.0"
     inkscape:pageshadow="2"
     inkscape:zoom="0.7071068"
     inkscape:cx="256.91552"
     inkscape:cy="98.471638"
     inkscape:document-units="mm"
     inkscape:current-layer="layer1"
     showgrid="false"
     units="px"
     inkscape:snap-bbox="true"
     inkscape:snap-bbox-midpoints="true"
     inkscape:snap-object-midpoints="true"
     inkscape:snap-global="true"
     inkscape:window-width="1680"
     inkscape:window-height="987"
     inkscape:window-x="-8"
     inkscape:window-y="-8"
     inkscape:window-maximized="1"
     fit-margin-top="0"
     fit-margin-left="0"
     fit-margin-right="0"
     fit-margin-bottom="0" />
  <metadata
     id="metadata5">
    <rdf:RDF>
      <cc:Work
         rdf:about="">
        <dc:format>image/svg+xml</dc:format>
        <dc:type
           rdf:resource="http://purl.org/dc/dcmitype/StillImage" />
        <dc:title>Infinihub Logo</dc:title>
        <dc:date>2017-01-20</dc:date>
        <dc:creator>
          <cc:Agent>
            <dc:title>Unicode4all</dc:title>
          </cc:Agent>
        </dc:creator>
        <dc:publisher>
          <cc:Agent>
            <dc:title>The Solaris 13 project</dc:title>
          </cc:Agent>
        </dc:publisher>
        <dc:description>Infinihub Logo. Wide version.</dc:description>
        <dc:rights>
          <cc:Agent>
            <dc:title>Licensed under Creative Commons Attribution-ShareAlike 4.0 International license.</dc:title>
          </cc:Agent>
        </dc:rights>
        <cc:license
           rdf:resource="http://creativecommons.org/licenses/by-sa/4.0/" />
      </cc:Work>
      <cc:License
         rdf:about="http://creativecommons.org/licenses/by-sa/4.0/">
        <cc:permits
           rdf:resource="http://creativecommons.org/ns#Reproduction" />
        <cc:permits
           rdf:resource="http://creativecommons.org/ns#Distribution" />
        <cc:requires
           rdf:resource="http://creativecommons.org/ns#Notice" />
        <cc:requires
           rdf:resource="http://creativecommons.org/ns#Attribution" />
        <cc:permits
           rdf:resource="http://creativecommons.org/ns#DerivativeWorks" />
        <cc:requires
           rdf:resource="http://creativecommons.org/ns#ShareAlike" />
      </cc:License>
    </rdf:RDF>
  </metadata>
  <g
     inkscape:label="Layer 1"
     inkscape:groupmode="layer"
     id="layer1"
     transform="translate(364.45215,-199.64684)">
    <flowRoot
       xml:space="preserve"
       id="flowRoot4644"
       style="font-style:normal;font-weight:normal;font-size:40px;line-height:25px;font-family:sans-serif;letter-spacing:0px;word-spacing:0px;fill:#000000;fill-opacity:1;stroke:none"><flowRegion
         id="flowRegion4646"><rect
           id="rect4648"
           width="313.24829"
           height="73.539108"
           x="272.94321"
           y="122.38416" /></flowRegion><flowPara
         id="flowPara4650" /></flowRoot>    <g
       id="g4541"
       transform="matrix(0.76789743,0,0,0.76789743,-60.16983,52.325382)">
      <g
         id="g4642"
         transform="matrix(2.5593073,0,0,2.5593073,-444.79015,-371.93932)"
         style="fill:#e6e6e6">
        <path
           id="path4638"
           d="m 19.645201,229.93966 -4.894903,-8.47822 4.894903,-8.47822 h 9.789806 l 4.894903,8.47822 -4.894903,8.47822 z"
           style="fill:#e6e6e6;stroke:#030000;stroke-width:0.5;stroke-miterlimit:4;stroke-dasharray:none;stroke-dashoffset:0;stroke-opacity:1"
           transform="rotate(30,10.024237,256.50824)"
           inkscape:connector-curvature="0" />
        <path
           sodipodi:nodetypes="cccccc"
           inkscape:connector-curvature="0"
           d="m 40.118747,233.41475 v 9.78981 m -8.478221,-14.68471 8.478221,4.89491 m 0,0 8.47822,-4.89491"
           style="fill:#e6e6e6;stroke:#000000;stroke-width:0.26458332px;stroke-linecap:butt;stroke-linejoin:miter;stroke-opacity:1"
           id="path4640" />
      </g>
      <g
         style="fill:#d40000"
         id="g4636"
         transform="matrix(0.68869892,0,0,0.68869892,-368.68534,64.68827)">
        <path
           id="path4632"
           d="m 19.645201,229.93966 -4.894903,-8.47822 4.894903,-8.47822 h 9.789806 l 4.894903,8.47822 -4.894903,8.47822 z"
           style="fill:#d40000;stroke:#030000;stroke-width:0.5;stroke-miterlimit:4;stroke-dasharray:none;stroke-dashoffset:0;stroke-opacity:1"
           transform="rotate(30,10.024237,256.50824)"
           inkscape:connector-curvature="0" />
        <path
           sodipodi:nodetypes="cccccc"
           inkscape:connector-curvature="0"
           d="m 40.118747,233.41475 v 9.78981 m -8.478221,-14.68471 8.478221,4.89491 m 0,0 8.47822,-4.89491"
           style="fill:#d40000;stroke:#000000;stroke-width:0.26458332px;stroke-linecap:butt;stroke-linejoin:miter;stroke-opacity:1"
           id="path4634" />
      </g>
      <g
         style="fill:#99ff55"
         transform="translate(-381.17435,-19.615664)"
         id="g4614">
        <path
           inkscape:connector-curvature="0"
           transform="rotate(30,10.024237,256.50824)"
           style="fill:#99ff55;stroke:#030000;stroke-width:0.5;stroke-miterlimit:4;stroke-dasharray:none;stroke-dashoffset:0;stroke-opacity:1"
           d="m 19.645201,229.93966 -4.894903,-8.47822 4.894903,-8.47822 h 9.789806 l 4.894903,8.47822 -4.894903,8.47822 z"
           id="path4600" />
        <path
           id="path4606"
           style="fill:#99ff55;stroke:#000000;stroke-width:0.26458332px;stroke-linecap:butt;stroke-linejoin:miter;stroke-opacity:1"
           d="m 40.118747,233.41475 v 9.78981 m -8.478221,-14.68471 8.478221,4.89491 m 0,0 8.47822,-4.89491"
           inkscape:connector-curvature="0"
           sodipodi:nodetypes="cccccc" />
      </g>
      <g
         style="fill:#00ccff"
         id="g4620"
         transform="translate(-391.24007,-1.9487169)">
        <path
           id="path4616"
           d="m 19.645201,229.93966 -4.894903,-8.47822 4.894903,-8.47822 h 9.789806 l 4.894903,8.47822 -4.894903,8.47822 z"
           style="fill:#00ccff;stroke:#030000;stroke-width:0.5;stroke-miterlimit:4;stroke-dasharray:none;stroke-dashoffset:0;stroke-opacity:1"
           transform="rotate(30,10.024237,256.50824)"
           inkscape:connector-curvature="0" />
        <path
           sodipodi:nodetypes="cccccc"
           inkscape:connector-curvature="0"
           d="m 40.118747,233.41475 v 9.78981 m -8.478221,-14.68471 8.478221,4.89491 m 0,0 8.47822,-4.89491"
           style="fill:#00ccff;stroke:#000000;stroke-width:0.26458332px;stroke-linecap:butt;stroke-linejoin:miter;stroke-opacity:1"
           id="path4618" />
        <path
           id="path4622"
           style="fill:#00ccff;stroke:#000000;stroke-width:0.26458332px;stroke-linecap:butt;stroke-linejoin:miter;stroke-opacity:1"
           d="m 40.118747,233.41475 v 9.78981 m -8.478221,-14.68471 8.478221,4.89491 m 0,0 8.47822,-4.89491"
           inkscape:connector-curvature="0"
           sodipodi:nodetypes="cccccc" />
      </g>
      <g
         transform="translate(-371.10863,-1.9487159)"
         id="g4630"
         style="fill:#ccff00">
        <path
           inkscape:connector-curvature="0"
           transform="rotate(30,10.024237,256.50824)"
           style="fill:#ccff00;stroke:#030000;stroke-width:0.5;stroke-miterlimit:4;stroke-dasharray:none;stroke-dashoffset:0;stroke-opacity:1"
           d="m 19.645201,229.93966 -4.894903,-8.47822 4.894903,-8.47822 h 9.789806 l 4.894903,8.47822 -4.894903,8.47822 z"
           id="path4624" />
        <path
           id="path4626"
           style="fill:#ccff00;stroke:#000000;stroke-width:0.26458332px;stroke-linecap:butt;stroke-linejoin:miter;stroke-opacity:1"
           d="m 40.118747,233.41475 v 9.78981 m -8.478221,-14.68471 8.478221,4.89491 m 0,0 8.47822,-4.89491"
           inkscape:connector-curvature="0"
           sodipodi:nodetypes="cccccc" />
        <path
           sodipodi:nodetypes="cccccc"
           inkscape:connector-curvature="0"
           d="m 40.118747,233.41475 v 9.78981 m -8.478221,-14.68471 8.478221,4.89491 m 0,0 8.47822,-4.89491"
           style="fill:#ccff00;stroke:#000000;stroke-width:0.26458332px;stroke-linecap:butt;stroke-linejoin:miter;stroke-opacity:1"
           id="path4628" />
      </g>
      <g
         id="flowRoot4511"
         style="font-style:normal;font-variant:normal;font-weight:normal;font-stretch:normal;font-size:40px;line-height:25px;font-family:GeosansLight;-inkscape-font-specification:GeosansLight;letter-spacing:0px;word-spacing:0px;fill:#000000;fill-opacity:1;stroke:none"
         transform="matrix(0.87945439,0,0,0.87945439,-502.11605,103.10941)"
         aria-label="INFINIHUB">
        <path
           id="path4565"
           style="font-style:normal;font-variant:normal;font-weight:500;font-stretch:normal;line-height:25.01161575px;font-family:GeosansLight;-inkscape-font-specification:'GeosansLight Medium';letter-spacing:4.53341389px"
           d="m 216.81281,153.29388 v -28.56 h -1.6 v 28.56 z"
           inkscape:connector-curvature="0" />
        <path
           id="path4567"
           style="font-style:normal;font-variant:normal;font-weight:500;font-stretch:normal;line-height:25.01161575px;font-family:GeosansLight;-inkscape-font-specification:'GeosansLight Medium';letter-spacing:4.53341389px"
           d="m 247.82341,153.77388 v -29.04 h -1.64 v 24.8 l -21.32,-25 v 28.76 h 1.6 v -24.24 z"
           inkscape:connector-curvature="0" />
        <path
           id="path4569"
           style="font-style:normal;font-variant:normal;font-weight:500;font-stretch:normal;line-height:25.01161575px;font-family:GeosansLight;-inkscape-font-specification:'GeosansLight Medium';letter-spacing:4.53341389px"
           d="m 268.16308,138.41388 v -1.64 h -10.8 v -10.4 h 10.8 v -1.64 h -12.4 v 28.56 h 1.6 v -14.88 z"
           inkscape:connector-curvature="0" />
        <path
           id="path4571"
           style="font-style:normal;font-variant:normal;font-weight:500;font-stretch:normal;line-height:25.01161575px;font-family:GeosansLight;-inkscape-font-specification:'GeosansLight Medium';letter-spacing:4.53341389px"
           d="m 277.79587,153.29388 v -28.56 h -1.6 v 28.56 z"
           inkscape:connector-curvature="0" />
        <path
           id="path4573"
           style="font-style:normal;font-variant:normal;font-weight:500;font-stretch:normal;line-height:25.01161575px;font-family:GeosansLight;-inkscape-font-specification:'GeosansLight Medium';letter-spacing:4.53341389px"
           d="m 308.7674,153.77388 v -29.04 h -1.64 v 24.8 l -21.32,-25 v 28.76 h 1.6 v -24.24 z"
           inkscape:connector-curvature="0" />
        <path
           id="path4575"
           style="font-style:normal;font-variant:normal;font-weight:500;font-stretch:normal;line-height:25.01161575px;font-family:GeosansLight;-inkscape-font-specification:'GeosansLight Medium';letter-spacing:4.53341389px"
           d="m 318.34707,153.29388 v -28.56 h -1.6 v 28.56 z"
           inkscape:connector-curvature="0" />
        <path
           id="path4577"
           style="font-style:normal;font-variant:normal;font-weight:500;font-stretch:normal;line-height:25.01161575px;font-family:GeosansLight;-inkscape-font-specification:'GeosansLight Medium';letter-spacing:4.53341389px"
           d="m 345.3958,153.29388 v -28.56 h -1.64 v 12.04 h -15.72 v -12.04 h -1.6 v 28.56 h 1.6 v -14.88 h 15.72 v 14.88 z"
           inkscape:connector-curvature="0" />
        <path
           id="path4579"
           style="font-style:normal;font-variant:normal;font-weight:500;font-stretch:normal;line-height:25.01161575px;font-family:GeosansLight;-inkscape-font-specification:'GeosansLight Medium';letter-spacing:4.53341389px"
           d="m 369.95109,146.17388 v -21.44 h -1.64 v 21.44 q 0,2.68 -2.04,4.28 -1.88,1.48 -4.64,1.48 -2.8,0 -4.64,-1.44 -2,-1.56 -2,-4.32 v -21.44 h -1.6 v 21.44 q 0,3.48 2.44,5.52 2.32,1.88 5.8,1.88 3.6,0 5.8,-1.84 2.52,-2.08 2.52,-5.56 z"
           inkscape:connector-curvature="0" />
        <path
           id="path4581"
           style="font-style:normal;font-variant:normal;font-weight:500;font-stretch:normal;line-height:25.01161575px;font-family:GeosansLight;-inkscape-font-specification:'GeosansLight Medium';letter-spacing:4.53341389px"
           d="m 395.80449,145.01388 q 0,-3.08 -1.8,-5.2 -1.84,-2.12 -4.84,-2.72 3.08,-1.76 3.08,-5.52 0,-3.28 -2.08,-5.12 -1.96,-1.72 -5.28,-1.72 h -6.96 v 28.56 h 8.92 q 3.76,0 6.36,-2.32 2.6,-2.28 2.6,-5.96 z m -5.2,-13.44 q 0,2.32 -1.52,3.76 -1.52,1.44 -3.84,1.44 h -5.72 v -10.4 h 5.48 q 2.36,0 4,1.44 1.6,1.36 1.6,3.76 z m 3.6,13.44 q 0,2.96 -2.16,4.8 -2.12,1.84 -5.16,1.84 h -7.36 v -13.24 h 7.36 q 3.08,0 5.12,1.76 2.2,1.84 2.2,4.84 z"
           inkscape:connector-curvature="0" />
      </g>
    </g>
  </g>
</svg>
